<svg xmlns="http://www.w3.org/2000/svg" xmlns:xlink="http://www.w3.org/1999/xlink" id="Layer_1" width="49.872" height="49.333" x="0" y="0" enable-background="new 0 0 49.872 49.333" version="1.1" viewBox="0 0 49.872 49.333" xml:space="preserve"><g><circle cx="25" cy="24.462" r="24.872" fill="#4F4F4F" opacity=".5"/><circle cx="25" cy="23.246" r="20.6" fill="#FFF"/><path fill="#CFCFCF" d="M34.187,20.211c-1.455-0.022-2.905-0.106-4.351-0.229c0.089-2.238,0.225-4.476,0.572-6.704 c0.72-4.6-6.309-6.576-7.034-1.939c-0.405,2.587-0.53,5.205-0.622,7.824c-2.063-0.275-4.127-0.555-6.195-0.775 c-4.676-0.499-4.626,6.801,0,7.294c1.952,0.209,3.899,0.47,5.848,0.73c-0.163,1.88-0.411,3.751-0.854,5.597 c-1.098,4.57,5.936,6.511,7.034,1.938c0.534-2.222,0.788-4.456,0.939-6.698c1.55,0.137,3.104,0.234,4.663,0.256 C38.892,27.578,38.886,20.282,34.187,20.211z"/></g></svg>